<?xml version="1.0" standalone="no"?>
<!DOCTYPE svg PUBLIC "-//W3C//DTD SVG 20010904//EN"
 "http://www.w3.org/TR/2001/REC-SVG-20010904/DTD/svg10.dtd">
<svg version="1.0" xmlns="http://www.w3.org/2000/svg"
 width="512.000000pt" height="512.000000pt" viewBox="0 0 512.000000 512.000000"
 preserveAspectRatio="xMidYMid meet">
<metadata>
Created by potrace 1.11, written by Peter Selinger 2001-2013
</metadata>
<g transform="translate(0.000000,512.000000) scale(0.100000,-0.100000)"
fill="#000000" stroke="none">
<path d="M1470 4900 l-395 -5 -53 -29 c-65 -36 -107 -82 -141 -156 l-26 -55 0
-2095 c0 -1997 1 -2097 18 -2142 36 -94 113 -165 208 -192 50 -15 195 -16
1500 -14 l1444 3 52 24 c62 28 136 103 166 169 l22 47 0 2090 c0 1655 -3 2099
-13 2132 -28 94 -115 183 -210 215 -29 10 -280 13 -1107 13 -588 1 -1248 -2
-1465 -5z m1455 -413 c194 -50 295 -105 417 -227 72 -72 94 -103 132 -181 25
-52 55 -132 68 -179 l22 -85 3 -1568 4 -1567 -178 2 -178 3 -38 94 c-21 52
-39 97 -41 99 -2 2 -54 -31 -115 -72 -138 -94 -226 -139 -338 -172 -219 -64
-539 -33 -753 74 -100 49 -221 168 -272 267 -99 192 -111 283 -106 822 4 424
4 429 30 524 83 308 259 470 593 549 32 8 186 14 418 17 l368 5 -3 441 c-3
433 -3 443 -25 483 -30 55 -80 97 -150 125 -51 20 -75 23 -198 23 -168 0 -233
-19 -301 -89 -68 -70 -74 -102 -74 -387 l0 -248 -305 0 -305 0 0 203 c0 418
36 580 170 758 97 129 242 223 425 274 138 39 193 44 420 40 185 -2 222 -6
310 -28z"/>
<path d="M2312 2321 c-92 -32 -134 -89 -153 -210 -7 -46 -9 -194 -7 -414 5
-382 10 -419 71 -480 39 -39 88 -56 182 -64 152 -12 283 43 416 176 52 53 95
107 112 140 l27 55 0 408 0 408 -297 0 c-262 -1 -304 -3 -351 -19z"/>
</g>
</svg>
